<svg width="52" height="52" viewBox="0 0 52 52" fill="none" xmlns="http://www.w3.org/2000/svg">
<path d="M21.8404 2.08008C20.1292 2.08008 18.7204 3.48881 18.7204 5.20008V7.28008H8.32044C8.18262 7.27813 8.0458 7.30359 7.91791 7.35498C7.79003 7.40637 7.67363 7.48267 7.57548 7.57943C7.47734 7.6762 7.39941 7.79151 7.34621 7.91865C7.29302 8.0458 7.26563 8.18225 7.26562 8.32008C7.26563 8.4579 7.29302 8.59436 7.34621 8.7215C7.39941 8.84865 7.47734 8.96396 7.57548 9.06072C7.67363 9.15749 7.79003 9.23379 7.91791 9.28518C8.0458 9.33657 8.18262 9.36203 8.32044 9.36008H9.36044V46.8001C9.36044 48.5202 10.7603 49.9201 12.4804 49.9201H39.5204C41.2406 49.9201 42.6404 48.5202 42.6404 46.8001V9.36008H43.6804C43.8182 9.36203 43.9551 9.33657 44.083 9.28518C44.2108 9.23379 44.3272 9.15749 44.4254 9.06072C44.5235 8.96396 44.6015 8.84865 44.6547 8.7215C44.7079 8.59436 44.7353 8.4579 44.7353 8.32008C44.7353 8.18225 44.7079 8.0458 44.6547 7.91865C44.6015 7.79151 44.5235 7.6762 44.4254 7.57943C44.3272 7.48267 44.2108 7.40637 44.083 7.35498C43.9551 7.30359 43.8182 7.27813 43.6804 7.28008H33.2804V5.20008C33.2804 3.48881 31.8717 2.08008 30.1604 2.08008H21.8404ZM21.8404 4.16008H30.1604C30.7372 4.16008 31.2004 4.62335 31.2004 5.20008V7.28008H20.8004V5.20008C20.8004 4.62335 21.2637 4.16008 21.8404 4.16008ZM19.7604 14.5601C20.3345 14.5601 20.8004 15.026 20.8004 15.6001V41.6001C20.8004 42.1752 20.3345 42.6401 19.7604 42.6401C19.1864 42.6401 18.7204 42.1752 18.7204 41.6001V15.6001C18.7204 15.026 19.1864 14.5601 19.7604 14.5601ZM26.0004 14.5601C26.5745 14.5601 27.0404 15.026 27.0404 15.6001V41.6001C27.0404 42.1752 26.5745 42.6401 26.0004 42.6401C25.4264 42.6401 24.9604 42.1752 24.9604 41.6001V15.6001C24.9604 15.026 25.4264 14.5601 26.0004 14.5601ZM32.2404 14.5601C32.8156 14.5601 33.2804 15.026 33.2804 15.6001V41.6001C33.2804 42.1752 32.8156 42.6401 32.2404 42.6401C31.6653 42.6401 31.2004 42.1752 31.2004 41.6001V15.6001C31.2004 15.026 31.6653 14.5601 32.2404 14.5601Z" fill="#E68314"/>
</svg>
